<svg id="visual" viewBox="0 0 900 600" width="900" height="600" xmlns="http://www.w3.org/2000/svg" xmlns:xlink="http://www.w3.org/1999/xlink" version="1.1"><rect x="0" y="0" width="900" height="600" fill="#002233"></rect><path d="M0 415L21.5 428.2C43 441.3 86 467.7 128.8 479C171.7 490.3 214.3 486.7 257.2 470C300 453.3 343 423.7 385.8 422.2C428.7 420.7 471.3 447.3 514.2 462.8C557 478.3 600 482.7 642.8 471C685.7 459.3 728.3 431.7 771.2 421.8C814 412 857 420 878.5 424L900 428L900 601L878.5 601C857 601 814 601 771.2 601C728.3 601 685.7 601 642.8 601C600 601 557 601 514.2 601C471.3 601 428.7 601 385.8 601C343 601 300 601 257.2 601C214.3 601 171.7 601 128.8 601C86 601 43 601 21.5 601L0 601Z" fill="#0066FF" stroke-linecap="round" stroke-linejoin="miter"></path></svg>